<svg xmlns="http://www.w3.org/2000/svg" viewBox="0 0 6064 3192"><rect fill="#f2f7f8" width="6064" height="3192"/><path fill="#fbfdfd" d="M2290.35,694.27c-113.79-.47-228.9-29.66-325.45-90.55-35.56-22-73.27-55.38-104.77-78.48C1572.31,332.35,1855.83,168.43,1622.24,0H4116.75c-6.67,99.79-38,201.81-114.72,269.32-35,31.69-79.46,45.21-116.8,72.22a283.29,283.29,0,0,0-88.71,110.32c-25.19,63.92-20.18,104.7-81.61,149.53-101.74,76-298.34,58.73-401.45-6.28h0c-55-35.55-127.66-49.05-191-29.1-28.08,8.92-54.62,23.25-82.74,35.18a493.94,493.94,0,0,1-122,35.12c-66.58,11.4-132.55,6.5-198.45-6.46-75.81-16.09-153.18-16.68-227.44,7.22-38.51,11.4-54.17,20.53-68,28.59C2396.26,686.1,2331.73,696,2290.35,694.27Z"/><path fill="#e4f0f2" d="M2474.79,1027c-111.32-86-187.54-23.7-303.95-121.78-72-60.64-48.16-88.91-141.12-198.25-56.61-66.59-148-174.1-285-206.75-95.5-22.77-106.45,16.31-230.67-2.83-142-21.88-140.18-74.9-260.44-93.52C1097.32,379.66,952.79,450.18,866,519c-36.11,28.6-59.68,56-76.42,82.27C749.29,664.4,760.44,709,710.43,769.18a297.41,297.41,0,0,1-50,47.25,304.73,304.73,0,0,1-73.76,39.72c-107.3,39.82-273.26,28.76-391.5,97.2C82.41,1018.64,38.62,1141.48,26.94,1174.26c-42,117.9-23.78,221.07-16.29,260.56,7,36.61,20.15,102.76,65.13,169.93,62.75,93.7,111.39,76,162.83,150.1,72.91,105.09,7.38,187.08,70.15,304.69,37.58,70.42,97.08,93.28,196.39,157.52,189.83,122.81,409.7,88.55,459.24,72,62.62-20.93,45.79-33.05,120.79-64.1,178.5-73.9,240.68,3.62,423.49-45.27,155.42-41.56,169.55-113.39,293.09-107.62,91.13,4.25,96.43,43.93,204,56.4,28.78,3.33,219.59,25.45,311.64-87.56,52.87-64.9,16.35-104.66,75.4-198.35,60.3-95.7,116.75-83.37,177-167,76.1-105.68,66.7-237.48,62.41-297.38-2.87-40.25-17.35-243.07-157.4-351.19"/><path fill="#e4f0f2" d="M5662.57,1476.65c-111.32-86-187.54-23.7-303.95-121.79-72-60.63-48.15-88.9-141.11-198.25-56.61-66.58-148-174.1-284.95-206.74-95.5-22.77-106.46,16.31-230.68-2.84-142-21.87-140.18-74.89-260.44-93.51-156.34-24.2-300.87,46.32-387.71,115.12-36.11,28.6-59.67,56-76.42,82.26-40.24,63.15-29.09,107.71-79.1,167.94a297.41,297.41,0,0,1-50,47.25,304.47,304.47,0,0,1-73.75,39.71c-107.3,39.83-273.27,28.77-391.5,97.21-112.79,65.29-156.58,188.13-168.26,220.91-42,117.9-23.78,221.07-16.29,260.56,7,36.61,20.15,102.76,65.13,169.93,62.76,93.7,111.39,76,162.83,150.1,72.91,105.09,7.38,187.08,70.15,304.69,37.58,70.41,97.08,93.27,196.39,157.52,189.83,122.81,409.7,88.55,459.24,72,62.62-20.93,45.79-33.05,120.79-64.1,178.5-73.9,240.68,3.62,423.49-45.27,155.42-41.57,169.55-113.39,293.09-107.63,91.13,4.26,96.43,43.94,204,56.4,28.78,3.34,219.59,25.45,311.64-87.55,52.87-64.91,16.35-104.66,75.4-198.36,60.3-95.69,116.75-83.36,177-167,76.1-105.68,66.7-237.47,62.41-297.37-2.87-40.26-17.35-243.07-157.4-351.19"/><path fill="#e4f0f2" d="M2239.21,787.77a6,6,0,0,1,6,6,6.11,6.11,0,0,1-.79,3L2234,814.93a6,6,0,0,1-8.19,2.23,5.93,5.93,0,0,1-2.22-2.2l-10.55-18.28a6,6,0,0,1,5.22-9Z"/><path fill="#e4f0f2" d="M3718.35,1001.26a3,3,0,0,1-1.18,4.08,3.09,3.09,0,0,1-1.48.37l-14.47-.19a3,3,0,0,1-3-3,3.1,3.1,0,0,1,.43-1.51l7.51-12.49a3,3,0,0,1,4.11-1,3.11,3.11,0,0,1,1.09,1.13Z"/><path fill="#e4f0f2" d="M2415,966a25,25,0,1,1,25-25A25,25,0,0,1,2415,966Zm0-48a23,23,0,1,0,23,23A23,23,0,0,0,2415,918Z"/><path fill="#e4f0f2" d="M3251,698a25,25,0,1,1,25-25A25,25,0,0,1,3251,698Zm0-48a23,23,0,1,0,23,23A23,23,0,0,0,3251,650Z"/><path fill="#e4f0f2" d="M3272,1316a12,12,0,1,0,12,12A12,12,0,0,0,3272,1316Zm0,22a10,10,0,1,1,10-10A10,10,0,0,1,3272,1338Zm0-14a4,4,0,1,0,4,4A4,4,0,0,0,3272,1324Z"/><path fill="#f2f7f8" d="M3829.77,1710.14a20,20,0,0,1,27.17-29.32,1.42,1.42,0,0,1,.15,2l-.07.08L3844.93,1695a1.43,1.43,0,0,0,0,2h0l12.1,12.1a1.42,1.42,0,0,1,0,2l-.08.07a20,20,0,0,1-27.17-1ZM3904,1696a4,4,0,1,1,4,4A4,4,0,0,1,3904,1696Zm-20,0a4,4,0,1,1,4,4A4,4,0,0,1,3884,1696Zm-20,0a4,4,0,1,1,4,4A4,4,0,0,1,3864,1696Z"/><path fill="#e4f0f2" d="M2307.34,2325.17a5.84,5.84,0,0,1-5.82-5.86,5.67,5.67,0,0,1,.54-2.43l6.23-13.49a5.83,5.83,0,0,1,10.07-.91l8.57,12.14a5.84,5.84,0,0,1-4.25,9.18l-14.79,1.34-.55,0m6.26-22.1h-.26a2.78,2.78,0,0,0-2.27,1.6l-6.23,13.49a2.76,2.76,0,0,0,2.77,3.92l14.8-1.34a2.78,2.78,0,0,0,2.51-3,2.84,2.84,0,0,0-.5-1.35l-8.56-12.14a2.76,2.76,0,0,0-2.26-1.18"/></svg>