<svg xmlns="http://www.w3.org/2000/svg" viewBox="0 0 67.65283 60.25"><defs><style>.a{fill:#ffffff;}</style></defs><title>search-download</title><path class="a" d="M42.84246,10.8815V21.11812H53.85211a.67137.67137,0,0,1,.48823,1.13921L34.30651,42.85263a.66855.66855,0,0,1-.96833,0L13.31249,22.25733a.67122.67122,0,0,1,.51264-1.13921H24.81038V10.8815C24.81038-3.62717,42.84246-3.62717,42.84246,10.8815Z"/><path class="a" d="M11.31887,45.48909v3.442H56.334v-3.442c0-7.43742,11.31887-7.43742,11.31887,0v8.91025A5.8726,5.8726,0,0,1,61.80217,60.25H5.85066A5.86733,5.86733,0,0,1,0,54.39934V45.48909C0,38.05167,11.31887,38.05167,11.31887,45.48909Z"/></svg>