<svg version="1.1" xmlns="http://www.w3.org/2000/svg" xmlns:xlink="http://www.w3.org/1999/xlink" x="0px" y="0px" width="18px"
	 height="22px" viewBox="0 0 18 22" style="enable-background:new 0 0 18 22;" xml:space="preserve">
<style type="text/css">
	.st0{opacity:0.15;fill:#009343;}
	.st1{fill:#009343;}
</style>
<g id="Layer_2">
	<polygon class="st0" points="9,1.4 9,20.3 2.3,15.8 0.7,11.7 0.7,3 	"/>
</g>
<g id="Layer_1">
	<path class="st1" d="M9,22c-0.2,0-0.3,0-0.4-0.1C8.2,21.7,0,17.5,0,11V3c0-0.5,0.3-0.9,0.8-1l8-2c0.2,0,0.3,0,0.5,0l8,2
		C17.7,2.1,18,2.5,18,3v8c0,6.5-8.2,10.7-8.6,10.9C9.3,22,9.2,22,9,22z M2,3.8V11c0,4.5,5.4,7.9,7,8.9c1.6-0.9,7-4.3,7-8.9V3.8L9,2
		L2,3.8z"/>
	<circle class="st1" cx="4.9" cy="6.7" r="1"/>
	<path class="st1" d="M13,7.8H7.7c-0.6,0-1-0.5-1-1v0c0-0.6,0.5-1,1-1H13c0.6,0,1,0.5,1,1v0C14,7.3,13.5,7.8,13,7.8z"/>
	<circle class="st1" cx="4.9" cy="9.8" r="1"/>
	<path class="st1" d="M13,10.8H7.7c-0.6,0-1-0.5-1-1v0c0-0.6,0.5-1,1-1H13c0.6,0,1,0.5,1,1v0C14,10.3,13.5,10.8,13,10.8z"/>
	<circle class="st1" cx="4.9" cy="12.7" r="1"/>
	<path class="st1" d="M12.9,13.8H7.6c-0.6,0-1-0.5-1-1v0c0-0.6,0.5-1,1-1h5.3c0.6,0,1,0.5,1,1v0C13.9,13.3,13.5,13.8,12.9,13.8z"/>
</g>
</svg>
