<svg xmlns="http://www.w3.org/2000/svg" viewBox="0 0 5056 2408"><rect fill="#f2f7f8" width="5056" height="2408"/><path fill="#FBFDFD" d="M2513.69,162.64c-96-8.23-147.57-1.91-201.53-38.2-55.41-37.25-70.8-83.36-95.95-124.44h683.28c-5.23,10.7-10.9,20.86-27.9,38.77C2844.24,67.57,2716.11,164.2,2550,164.19,2538.06,164.19,2525.94,163.7,2513.69,162.64Z"/><path fill="#e4f0f2" d="M1283.9,1444.37c-122.86-59.74-206.49-203.52-299.52-270.21a304.51,304.51,0,0,0-74.16-38.93,297,297,0,0,0-67.12-15c-77.9-7.78-108.6,26.38-183.46,28.33-31.15.82-67-3.41-110.93-17.35-105.6-33.52-244.89-113.91-312.24-257.05C184.65,764,229.6,735.85,168.35,605.93,114.76,492.24,76.24,505,41.71,413.11-7.8,281.32,30.22,145.43,53.77,61.26,60.6,36.85,67.37,16.87,74,0H1847.39c60.84,38.89,63.22,21,113.73,59.76,41.43,31.82,192.78,194.93,197.12,421,2.27,118.25,16.59,180.37-20.77,250.9-62.4,117.81-167,109.32-213.37,228.53-32.71,84.11,9.2,114.51-33.39,218.93-30.53,74.85-78,122.79-104.46,149-28.55,28.29-103.87,101.11-225.12,132.2-18.77,4.81-66.28,17-124.94,17C1389.53,1477.33,1335.82,1469.62,1283.9,1444.37Z"/><path fill="#e4f0f2" d="M4001.2,521.87c-113.88,12.68-123.28,92.31-247,100.76-76.49,5.23-78.56-24.81-194.93-36.22-70.86-7-185.28-18.18-284,40.23-68.84,40.74-53.13,69.84-136.73,129C3043,823.18,3014,791.11,2933,848.3c-105.29,74.35-150,197.5-161.94,287-5,37.19-3.25,66.58,1.82,91.46,12.18,59.78,43.95,79.57,48.76,143.17a242.32,242.32,0,0,1-2.53,56,248.13,248.13,0,0,1-20.71,65c-40.32,84.08-143.8,171.58-174.3,278.62-29.1,102.12,14.8,198.87,26.52,224.69,42.14,92.86,111.25,143,138,161.85,24.8,17.52,70,48.79,134.38,62.67,89.82,19.36,108.26-18.58,180.38-4.27,102.22,20.28,110.25,105.42,213.62,138.77,61.89,20,109.69-.33,204.24-18.93,180.75-35.55,290.15-180.12,309.79-217.87,24.83-47.72,8.11-45.29,34.46-105.95,62.72-144.37,143-134.17,222.45-266.32,67.51-112.35,35.11-162.43,110.75-229,55.79-49.11,81.37-28.86,151.43-82.47,18.75-14.34,143-109.43,133-227.75-5.78-68-49.68-70.57-68.15-158.9-18.86-90.2,21.2-114.94,9.12-198-15.26-105-95.4-176.88-131.82-209.55-24.48-22-147.8-132.56-291.07-116.6"/><circle fill="#f2f7f8" cx="1761.92" cy="300" r="32"/><circle fill="#e4f0f2" cx="1761.92" cy="300" r="16"/><circle fill="#e4f0f2" cx="3102" cy="430" r="14"/><circle fill="#f2f7f8" cx="1735.92" cy="554" r="14"/><path fill="#e4f0f2" d="M2138,120a6,6,0,1,0,6,6,6,6,0,0,0-6-6m0-4a10,10,0,1,1-10,10A10,10,0,0,1,2138,116Z"/><circle fill="#e4f0f2" cx="2074" cy="1070" r="10"/><path fill="#e4f0f2" d="M2941.88,255.89v-5.77h-5.76A4.11,4.11,0,0,1,2932,246h0a4.11,4.11,0,0,1,4.12-4.11h5.76v-5.77A4.13,4.13,0,0,1,2946,232h0a4.13,4.13,0,0,1,4.12,4.12h0v5.77h5.76A4.11,4.11,0,0,1,2960,246h0a4.11,4.11,0,0,1-4.12,4.12h-5.76v5.77a4.12,4.12,0,0,1-8.24,0Z"/><path fill="#e4f0f2" d="M3329.18,119.18V106.83h-12.36a8.83,8.83,0,0,1,0-17.65h12.36V76.83A8.83,8.83,0,0,1,3338,68h0a8.82,8.82,0,0,1,8.82,8.83V89.18h12.36a8.83,8.83,0,0,1,0,17.65h-12.36v12.35a8.82,8.82,0,1,1-17.64,0Z"/><path fill="#f2f7f8" d="M3116.71,830.71V823.3h-7.42a5.3,5.3,0,0,1,0-10.59h7.42V805.3A5.29,5.29,0,0,1,3122,800h0a5.31,5.31,0,0,1,5.3,5.3h0v7.41h7.41a5.3,5.3,0,1,1,0,10.59h-7.41v7.41a5.29,5.29,0,0,1-10.58,0Z"/><path fill="#e4f0f2" d="M2962.9,84.17a13.07,13.07,0,0,1-10.73,1.41A8.2,8.2,0,0,0,2942,91.19a8.63,8.63,0,0,0-.2.88,2.57,2.57,0,1,1-5.09-.77s0-.06,0-.09c.09-.51.21-1,.35-1.52a13.33,13.33,0,0,1,16.55-9,8.12,8.12,0,0,0,6.62-.9,8,8,0,0,0,3.75-5.57,2.57,2.57,0,0,1,5.08.83,13.35,13.35,0,0,1-6.1,9.1l-.09.06"/><path fill="#f2f7f8" d="M1999,440.66a22,22,0,0,1-18,2.38,13.79,13.79,0,0,0-17.06,9.42,12.54,12.54,0,0,0-.34,1.5,4.33,4.33,0,1,1-8.58-1.13c0-.11,0-.22,0-.33a21.77,21.77,0,0,1,.59-2.54,22.43,22.43,0,0,1,27.82-15.22,13.64,13.64,0,0,0,11.12-1.5,13.49,13.49,0,0,0,6.32-9.37,4.33,4.33,0,0,1,8.54,1.4,22.52,22.52,0,0,1-10.26,15.3l-.15.09"/><path fill="#f2f7f8" d="M1860.28,132.36V121.65h-10.71a7.65,7.65,0,0,1,0-15.29h10.71V95.65a7.65,7.65,0,0,1,7.65-7.65h0a7.65,7.65,0,0,1,7.64,7.65v10.71h10.71a7.65,7.65,0,0,1,7.65,7.64h0a7.65,7.65,0,0,1-7.65,7.65h-10.71v10.71a7.64,7.64,0,0,1-7.64,7.64h0A7.64,7.64,0,0,1,1860.28,132.36Z"/><path fill="#e4f0f2" d="M2181.88,343.89v-5.77h-5.76A4.11,4.11,0,0,1,2172,334h0a4.11,4.11,0,0,1,4.12-4.11h5.76v-5.77A4.13,4.13,0,0,1,2186,320h0a4.13,4.13,0,0,1,4.12,4.12h0v5.77h5.76A4.11,4.11,0,0,1,2200,334h0a4.11,4.11,0,0,1-4.12,4.12h-5.76v5.77a4.12,4.12,0,0,1-8.24,0Z"/></svg>